<svg id="Capa_1" data-name="Capa 1" xmlns="http://www.w3.org/2000/svg" viewBox="0 0 294.65 233.65"><defs><style>.cls-1{fill:none;stroke:#fafafa;stroke-miterlimit:10;stroke-width:9px;}.cls-2{fill:#212121;}.cls-3{fill:#fafafa;}</style></defs><title>summit2</title><path class="cls-1" d="M973.56,599.59l80.1-137.18L1126.31,585c1.25,2.75,8.92,20.32,1.86,37.41-7.84,19-34.06,29.37-54,18.71-19.62-10.48-26.81-37.76-13.16-58.16l18-32,79-126,102.45,176.67" transform="translate(-969.68 -416.29)"/><rect class="cls-2" x="1072.74" y="517.79" width="30.5" height="6.85" transform="translate(-909.45 736.66) rotate(-57.17)"/><rect class="cls-2" x="1081.74" y="533.79" width="30.5" height="6.85" transform="translate(-918.78 751.55) rotate(-57.17)"/><path class="cls-3" d="M1090.73,438.17a0.44,0.44,0,0,0,.17-0.56,0.63,0.63,0,0,1,.21-0.86,5.19,5.19,0,0,0,.91-0.87,4.63,4.63,0,0,1,1.65-1.39l0.39-.26a2.36,2.36,0,0,1,.44-0.17,3.46,3.46,0,0,1,1.22-.18,1.22,1.22,0,0,0,.7-0.13l0.3-.17,0.3-.17a0.48,0.48,0,0,1,.74.13l0.13,0.09,0.13,0a6.87,6.87,0,0,1,2.28.94,5.48,5.48,0,0,1,2.15,2.58,1.39,1.39,0,0,1,.09.73v0.82l0,0.82,0.14,2.2V442a1.79,1.79,0,0,1-.09.22,2,2,0,0,0-.17,1.08,1.06,1.06,0,0,1-.26.78,1.18,1.18,0,0,1-.74.43,7.6,7.6,0,0,0-.79,0,2.73,2.73,0,0,1-1.62-.12l-0.17,0-0.22,0a5.18,5.18,0,0,1-2.14-.64l-0.83-.38-0.79-.3-0.61-.21-0.66-.21-0.61-.26-0.57-.26-0.53-.39-0.53-.43a0.35,0.35,0,0,1-.09-0.26,1.19,1.19,0,0,0-.53-1.08,0.5,0.5,0,0,1-.22-0.47,3.88,3.88,0,0,0,0-.52l-0.09-.6Zm4.93,34.44h0.09l0.09,0,0.22-.09,0.22-.09a0.39,0.39,0,0,0,.22-0.35,0.25,0.25,0,0,1,.13-0.13l0.13-.09,0.09,0,0.17-.09,0.17-.13,0.3-.56,0-.09,0-.13c0-.29-0.06-0.5-0.09-0.65a2,2,0,0,1-.09-0.78,0.39,0.39,0,0,0,0-.26l-0.09-.26-0.31-.6-0.4-.6-0.35-.65-0.35-.6-0.35-.56-0.44-.52a1.06,1.06,0,0,0-.48-0.3,2.7,2.7,0,0,1-1-.69l-0.18-.21-0.18-.17a1.31,1.31,0,0,1-.31-0.43l-0.13-.26-0.13-.3-0.09-.26-0.09-.26a1.05,1.05,0,0,1-.09-0.56v-0.13a1.72,1.72,0,0,1-.13-0.69l0-.39,0-.35a1,1,0,0,0-.14-0.82v-0.17l0.22,0a0.65,0.65,0,0,0,.61-0.31l0.22-.26,0.26-.3-0.09-.09-0.09-.09v-0.09a0.05,0.05,0,0,1,0-.09l0.17-.09,0.17-.09a0.42,0.42,0,0,1,.39-0.13,2,2,0,0,0,1-.18,0.75,0.75,0,0,1,.74,0,1.17,1.17,0,0,0,.52,0,2.32,2.32,0,0,1,2.54.81l0.35,0.56,0.35,0.52,0.35,0.52,0.26,0.52,0.53,0.95,0.53,1,0.26,0.52,0.22,0.52,0.62,1.51a17.14,17.14,0,0,1,.71,2.15l0.09,0.43,0.13,0.39V468l0,0.17a0.46,0.46,0,0,0,0,.22,0.76,0.76,0,0,1,.09.34V469a2.39,2.39,0,0,1-.08.52l-0.17.69-0.22.56-0.22.56,0,0.13-0.09.13a0.66,0.66,0,0,1-.26.22l-0.13,0-0.09.13a5.3,5.3,0,0,0-.87,1.13,0.42,0.42,0,0,1-.35.3l-0.13,0-0.09,0a0.36,0.36,0,0,1-.22.3l-0.22.09-0.13.13a0.57,0.57,0,0,1-.22.13,1.07,1.07,0,0,0-.48.13l-0.48.22a1.42,1.42,0,0,1-.83.09l-0.39-.08h-0.39l-0.61-.13-0.57-.21,0,0,0,0a0.82,0.82,0,0,1-.53-0.17l-0.18-.13-0.17-.17,0-.09,0-.43-0.09-.52A0.65,0.65,0,0,0,1095.66,472.61Z" transform="translate(-969.68 -416.29)"/></svg>