<svg id="Capa_1" data-name="Capa 1" xmlns="http://www.w3.org/2000/svg" viewBox="0 0 730.39 252.15"><defs><style>.cls-1,.cls-33{fill:#fafafa;}.cls-2{fill:#6fb3dd;}.cls-3{fill:#79b4e1;}.cls-4{fill:#78b4e1;}.cls-5{fill:#61aed5;}.cls-6{fill:#70b3dd;}.cls-7{fill:#32408e;}.cls-8{fill:#67b0d8;}.cls-9{fill:#5faed4;}.cls-10{fill:#11789e;}.cls-11{fill:#2e8eb3;}.cls-12{fill:#2085aa;}.cls-13{fill:#48a0c4;}.cls-14{fill:#3d98bd;}.cls-15{fill:#11779e;}.cls-16{fill:#55a8cd;}.cls-17{fill:#1b6298;}.cls-18{fill:#156c9a;}.cls-19{fill:#1d6097;}.cls-20{fill:#439cc1;}.cls-21{fill:#146e9b;}.cls-22{fill:#56a9cd;}.cls-23{fill:#4da3c8;}.cls-24{fill:#245494;}.cls-25{fill:#255394;}.cls-26{fill:#3794b9;}.cls-27{fill:#2084a9;}.cls-28{fill:#298bb0;}.cls-29{fill:#2a4a91;}.cls-30{fill:#2b4891;}.cls-31{fill:#308fb4;}.cls-32{fill:#177fa4;}.cls-33{font-size:85.97px;font-family:Myriad Pro;}.cls-34{letter-spacing:-1px;}</style></defs><title>Summit-Logo</title><path class="cls-1" d="M571.25,189.22l25.63-44.34L671.8,274.65a4.33,4.33,0,0,1-2.57.36c-14.24,0-28.48,0-42.72.05-1.74,0-2.79-.44-3.56-2-0.91-1.92-2.08-3.72-3.35-5.92H658L597.1,161.58a3.06,3.06,0,0,0-1.45,1.73c-6.2,10.72-12.37,21.47-18.62,32.16a2.93,2.93,0,0,0,0,3.44q14.1,24.25,28.08,48.57c0.67,1.17,1.34,2.34,2.14,3.74H535.53a5.71,5.71,0,0,1,1-2.18q14.37-24.92,28.8-49.81a3.33,3.33,0,0,0,.06-3.87q-24-41.38-47.88-82.82c-0.36-.62-0.74-1.22-1.13-1.87-1,.17-1.13,1.1-1.49,1.73q-18.18,31.44-36.32,62.92c-3.83,6.65-7.62,13.32-11.54,19.91a3.1,3.1,0,0,0,0,3.67q14.71,25.29,29.28,50.65c0.27,0.48.53,1,.8,1.47-1.81.47-68.54,0.6-71.72,0.13,0.71-1.29,1.38-2.54,2.09-3.76q14-24.19,28-48.35a3.32,3.32,0,0,0,.07-3.87c-6.14-10.48-12.18-21-18.27-31.53a5.07,5.07,0,0,0-1.59-2.13L374.79,267h38.4c-1.61,2.77-3,5.16-4.37,7.54a1.09,1.09,0,0,1-1,.5H361.23c0.4-1.81,71.54-125.52,74.73-130l25.32,43.81c6.3-10.68,12.27-21.18,18.32-31.64s12.07-20.9,18.1-31.35l18.46-32c4.81,8.1,9.26,16,13.79,23.8s9.19,15.92,13.78,23.88l13.67,23.67Z" transform="translate(-154.8 -93.92)"/><path class="cls-1" d="M199.86,276.45a54.43,54.43,0,0,1-20.47-3.25c-13.3-5-21.11-14.75-24.17-28.46-0.8-3.57-.74-3.59,2.86-3.59,1.68,0,3.36.08,5,0a1.79,1.79,0,0,1,2.12,1.67,35.84,35.84,0,0,0,1.29,4.11c3.83,10.4,11.13,17,21.92,19.49a50.42,50.42,0,0,0,26.53-.66c7.06-2.14,12.63-6.28,15.38-13.36a28.25,28.25,0,0,0,.16-20c-1.64-4.73-5.06-8.08-9.19-10.74-5.3-3.41-11.16-5.5-17.15-7.26-5.75-1.68-11.62-2.92-17.29-4.88A67.49,67.49,0,0,1,173,203.22c-10.22-6.39-14-15.84-12.74-27.47,1.4-12.47,8.33-21,20-25.26,13.43-4.91,27-4.83,40.17,1.07,11.28,5.06,17.57,14.21,19.63,26.32,0.26,1.51.17,1.59-1.44,1.62-2.32,0-4.64-.06-7,0a1.68,1.68,0,0,1-2-1.51,37.11,37.11,0,0,0-1.37-4.33A24.8,24.8,0,0,0,211,158a45.25,45.25,0,0,0-24.63,0c-4.81,1.32-9.09,3.72-12,7.92-4.63,6.78-5.09,14.14-2.25,21.72a15.68,15.68,0,0,0,6.13,7.21c4.73,3.29,10.1,5.09,15.55,6.73,6.27,1.89,12.71,3.17,18.9,5.33a67.68,67.68,0,0,1,17,8.26c8.7,6.13,12.87,14.53,12.92,25.14,0,5.09-.44,10-2.43,14.78-3.91,9.3-11,15.08-20.33,18.42A55.1,55.1,0,0,1,199.86,276.45Z" transform="translate(-154.8 -93.92)"/><path class="cls-1" d="M265.85,192.3q0-19.92,0-39.84c0-.56,0-1.12,0-1.68,0-1.74.05-1.77,1.7-1.79,2.32,0,4.64,0,7,0,1.07,0,1.69.27,1.57,1.48a16,16,0,0,0,0,1.68q0,37.08,0,74.16A58.07,58.07,0,0,0,278.59,244c4,12.46,12.32,20.13,25.21,22.56a51.27,51.27,0,0,0,21.2-.48c12-2.76,19-10.54,22.17-22.12a67.89,67.89,0,0,0,2.19-18q0.06-37,0-73.92c0-3.47-.41-3,3.09-3,1.92,0,3.84,0,5.76,0a1,1,0,0,1,1.17,1.12c0,0.56,0,1.12,0,1.68q0,35.52,0,71c0,8.41-.52,16.78-3.08,24.88-2.92,9.21-7.92,16.89-16.29,22.08a42.93,42.93,0,0,1-16.13,5.8,63.64,63.64,0,0,1-26.18-.82c-15.63-4.07-25.34-14.19-29.63-29.64a64.15,64.15,0,0,1-2.22-17.06C265.83,216.14,265.85,204.22,265.85,192.3Z" transform="translate(-154.8 -93.92)"/><path class="cls-1" d="M736.87,212.51q0,25.8,0,51.6c0,0.56,0,1.12,0,1.68a1,1,0,0,0,1.25,1.28c0.56,0,1.12,0,1.68,0H776c0.48,0,1,0,1.44,0,1.74,0,1.76,0,1.78,1.67,0,2,0,4,0,6A1,1,0,0,1,778,276c-0.48,0-1,0-1.44,0H686.34c-1.73,0-1.76,0-1.78-1.67,0-2,0-4,0-6a1,1,0,0,1,1.27-1.25c0.56,0,1.12,0,1.68,0H724c0.56,0,1.12,0,1.68,0a1,1,0,0,0,1.23-1.32c0-.56,0-1.12,0-1.68q0-51.48,0-103c0-3.36.48-3-3.1-3q-18.12,0-36.24,0c-0.56,0-1.12,0-1.68,0a1,1,0,0,1-1.3-1.24q0-3.36,0-6.72a0.94,0.94,0,0,1,1.11-1.15c0.48,0,1,0,1.44,0h89.51c3,0,2.62-.29,2.65,2.73,0,1.6-.07,3.2,0,4.8,0.07,1.31-.49,1.63-1.69,1.6-2.8-.06-5.6,0-8.4,0H739.68l-1.92,0a0.78,0.78,0,0,0-.88.88c0,0.64,0,1.28,0,1.92Q736.87,186.71,736.87,212.51Z" transform="translate(-154.8 -93.92)"/><path class="cls-1" d="M842.62,216.55q0,27.47,0,54.94c0,0.4,0,.8,0,1.2,0,2.53.22,2.32-2.32,2.33-1.84,0-3.68,0-5.52,0-2,0-2,0-2.05-2.15,0-.56,0-1.12,0-1.68q0-55.06,0-110.12c0-3.32.28-3-2.94-3H793.32c-0.56,0-1.12,0-1.68,0-1.07.06-1.37-.48-1.34-1.46q0.07-3.12,0-6.24c0-1,.34-1.49,1.38-1.42,0.48,0,1,0,1.44,0h89.73c2.33,0,2.34,0,2.35,2.35,0,1.68,0,3.36,0,5s-0.05,1.66-1.78,1.72c-0.48,0-1,0-1.44,0H845.25c-2.94,0-2.63-.08-2.63,2.55Q842.62,188.6,842.62,216.55Z" transform="translate(-154.8 -93.92)"/><path class="cls-2" d="M480.61,243.15h-2.88a4.41,4.41,0,0,1-2.09-2.21c-5.3-9.09-10.49-18.25-15.79-27.34-0.7-1.21-1.55-2.48-.88-4l0,0a2.56,2.56,0,0,0,.52-1,3.25,3.25,0,0,1,1-1.78c2.41,3.82,4.41,7.88,6.73,11.76,4.2,7,8.11,14.22,12.27,21.27C480.07,240.83,480.84,241.85,480.61,243.15Z" transform="translate(-154.8 -93.92)"/><path class="cls-3" d="M480.61,243.15c-1.12-2-2.23-4-3.37-6-0.66-1.16-1.39-2.29-2.05-3.45-1.73-3-3.42-6-5.15-9-1.34-2.32-2.74-4.6-4.08-6.92a90.48,90.48,0,0,1-5.32-9.77,4.52,4.52,0,0,1-.16-1.17,2.44,2.44,0,0,1,1-1.41l21.66,37.48A3.87,3.87,0,0,1,480.61,243.15Z" transform="translate(-154.8 -93.92)"/><path class="cls-4" d="M570.85,206.21c0.07-.48.33-0.81,0.75-0.4a6.2,6.2,0,0,1,.91,1.39Q582.28,224.11,592,241a3.66,3.66,0,0,1,.83,2,3.82,3.82,0,0,1-2.31.16c-2.7-2.39-3.91-5.76-5.69-8.75-4.79-8.05-9.36-16.24-14.11-24.32a2.94,2.94,0,0,1-.4-2.91l0,0A3.23,3.23,0,0,0,570.85,206.21Z" transform="translate(-154.8 -93.92)"/><path class="cls-5" d="M459,209.57a19.57,19.57,0,0,0,2.22,5c3.3,5.55,6.45,11.2,9.68,16.79,2.27,3.94,4.58,7.86,6.87,11.78h-2.88a3.5,3.5,0,0,1-1.67-1.6c-5.14-8.68-10.22-17.4-15.13-26.22a3.62,3.62,0,0,1-.51-3.39A4.77,4.77,0,0,1,459,209.57Z" transform="translate(-154.8 -93.92)"/><path class="cls-6" d="M570.35,207.18a3.34,3.34,0,0,0,.58,2c2.52,3.35,4,7.3,6.45,10.74a87.45,87.45,0,0,1,4.3,7.87c0.72,1.31,1.58,2.54,2.35,3.83q3.2,5.39,6.36,10.79a2.47,2.47,0,0,1,.17.69h-1.94a3.79,3.79,0,0,1-1.84-1.8c-5.67-9.77-11.27-19.58-16.94-29.35-0.62-1.07-1.12-2.12-.41-3.33A2.64,2.64,0,0,1,570.35,207.18Z" transform="translate(-154.8 -93.92)"/><path class="cls-7" d="M561.26,243.18H549.62a69.43,69.43,0,0,1,5.83-10.07,1.08,1.08,0,0,1,1.35.67,77.47,77.47,0,0,1,4.45,7.81A1.61,1.61,0,0,1,561.26,243.18Z" transform="translate(-154.8 -93.92)"/><path class="cls-8" d="M569.43,208.67c-0.19,2.11,1.25,3.59,2.2,5.16,3.5,5.79,6.71,11.74,10.13,17.57q3.44,5.87,6.85,11.75h-1.92a4.44,4.44,0,0,1-2-2.27c-5.39-8.94-10.41-18.09-15.75-27.05-0.62-1-1.22-2.1-.5-3.35A3.1,3.1,0,0,1,569.43,208.67Z" transform="translate(-154.8 -93.92)"/><path class="cls-9" d="M568.42,210.47c0.11,2.39,1.78,4.05,2.85,6,2.72,4.87,5.54,9.68,8.34,14.51q3.53,6.1,7.08,12.2h-1.92a3.66,3.66,0,0,1-1.87-1.75c-4.91-8.64-10-17.18-14.88-25.84-0.64-1.14-1.21-2.24-.52-3.56A2.38,2.38,0,0,1,568.42,210.47Z" transform="translate(-154.8 -93.92)"/><path class="cls-7" d="M451.34,243.19H439.48c2-3.71,3.95-7.19,6.11-10.52a54,54,0,0,1,5.52,8.92A1.67,1.67,0,0,1,451.34,243.19Z" transform="translate(-154.8 -93.92)"/><path class="cls-10" d="M561.24,223a2.9,2.9,0,0,1,1-1.84c2.12,1.47,3,3.83,4.21,5.94,2.4,4.31,5.05,8.48,7.41,12.81,0.53,1,1.54,1.92.87,3.26h-2.89c-3.19-4.12-5.44-8.81-8.06-13.26-1.13-1.91-2.5-3.72-3.09-5.92a1.4,1.4,0,0,1,.14-0.45A2.58,2.58,0,0,0,561.24,223Z" transform="translate(-154.8 -93.92)"/><path class="cls-11" d="M579.5,243.15h-2.4c-1.58-.64-2-2.22-2.7-3.51-3.34-6-6.93-11.81-10.19-17.83-0.53-1-1.21-1.92-.56-3.1a2.15,2.15,0,0,1,.92-1.52,5.82,5.82,0,0,1,2.21,2.76c4,7.11,8.18,14.1,12.13,21.22A2.37,2.37,0,0,1,579.5,243.15Z" transform="translate(-154.8 -93.92)"/><path class="cls-12" d="M563.65,218.71c0,1.71,1.22,2.9,2,4.26,2.34,4.31,4.86,8.52,7.3,12.78,1.41,2.46,2.8,4.94,4.2,7.41h-2.38a100.35,100.35,0,0,0-5.91-10.48c-1.45-2.35-2.81-4.78-4.09-7.23-0.77-1.48-1.95-2.7-2.49-4.3h0a1.39,1.39,0,0,0,.42-0.59A3.18,3.18,0,0,1,563.65,218.71Z" transform="translate(-154.8 -93.92)"/><path class="cls-13" d="M565.57,215.36a2.37,2.37,0,0,1,.91-1.54c2.92,3.7,4.94,8,7.3,12,2.77,4.74,5.56,9.47,8.25,14.25,0.53,1,1.33,1.85.82,3.09H581a12.16,12.16,0,0,1-2.41-3.26c-3.81-6.75-7.73-13.44-11.6-20.15C566.18,218.41,565,217.14,565.57,215.36Z" transform="translate(-154.8 -93.92)"/><path class="cls-14" d="M565.57,215.36c1.18,3.49,3.4,6.44,5.15,9.63,2.71,4.94,5.66,9.74,8.38,14.67,0.63,1.15,2,1.92,1.85,3.5H579.5c-2.27-2.9-3.63-6.34-5.61-9.42-1.63-2.53-3-5.21-4.48-7.84-1.61-2.91-3.44-5.68-4.84-8.7A3.4,3.4,0,0,1,565.57,215.36Z" transform="translate(-154.8 -93.92)"/><path class="cls-15" d="M450.87,223.55a7.75,7.75,0,0,1,1.42-2.44c2.73,4.75,5.41,9.52,8.2,14.23,1.05,1.78,2.09,3.57,3,5.41,0.39,0.75,1.08,1.43.78,2.42h-2.86c-2.32-2.57-3.74-5.73-5.38-8.71-1.54-2.8-3.32-5.44-4.8-8.27C450.81,225.32,450.27,224.54,450.87,223.55Z" transform="translate(-154.8 -93.92)"/><path class="cls-16" d="M582.86,243.15c-1.56-3.38-3.55-6.52-5.41-9.73q-3.16-5.43-6.21-10.92c-1.26-2.28-2.64-4.51-4.07-6.69a4,4,0,0,1-.68-2,0.61,0.61,0,0,1,.14-0.37,2.31,2.31,0,0,0,.36-0.56,1.06,1.06,0,0,1,.51-0.88c-0.23,2,1.21,3.42,2.07,5,3.28,5.9,6.74,11.7,10.14,17.54q2.52,4.33,5.06,8.64h-1.92Z" transform="translate(-154.8 -93.92)"/><path class="cls-17" d="M558.38,227.85a8.23,8.23,0,0,1,1.43-2.43c1.59,0.89,1.9,2.67,2.76,4.06,2.4,3.91,4.81,7.82,6.86,11.94a2.07,2.07,0,0,1,.47,1.76h-3.35a7.22,7.22,0,0,1-2-2.63c-1.61-3-3.34-6-5.14-8.94C558.7,230.49,557.72,229.36,558.38,227.85Z" transform="translate(-154.8 -93.92)"/><path class="cls-18" d="M450.87,223.55a2.51,2.51,0,0,0,.27,1.39c2.55,3.89,4.75,8,7,12a23.48,23.48,0,0,0,2.94,4.84,2,2,0,0,1,.32,1.37H459.5a4.73,4.73,0,0,1-2.25-2c-2.57-4.28-4.81-8.76-7.47-13-0.41-.65-0.9-1.35-0.34-2.18A7.27,7.27,0,0,1,450.87,223.55Z" transform="translate(-154.8 -93.92)"/><path class="cls-19" d="M449.44,226c0,1,.76,1.56,1.18,2.31,2.29,4.07,4.69,8.08,7,12.16,0.55,1,1.28,1.82,1.9,2.74h-3.35c-2.82-3.06-4.3-6.95-6.42-10.44-0.74-1.22-2.06-2.27-1.79-4a1.59,1.59,0,0,1,.08-0.42q0.22-.25.43-0.52A2.83,2.83,0,0,1,449.44,226Z" transform="translate(-154.8 -93.92)"/><path class="cls-20" d="M472,243.15h-1.44c-2.44-1.1-3-3.68-4.13-5.67-3.46-5.9-6.87-11.83-10.29-17.74-0.62-1.06-1.53-2.11-1-3.53a3.49,3.49,0,0,1,1-1.82c5.14,8.83,10.31,17.64,15.28,26.56C471.79,241.64,472.33,242.28,472,243.15Z" transform="translate(-154.8 -93.92)"/><path class="cls-21" d="M569.9,243.18c-1.48-1.6-2.09-3.72-3.24-5.52-1.71-2.68-3.14-5.53-4.91-8.18a30.91,30.91,0,0,1-1.95-4,1.87,1.87,0,0,1,.87-1.44c1.69,1.22,2.19,3.24,3.21,4.9,2.4,3.92,4.46,8,7.05,11.84a7.31,7.31,0,0,1,.88,2.44H569.9Z" transform="translate(-154.8 -93.92)"/><path class="cls-22" d="M457.55,211.94a6.38,6.38,0,0,0,1.22,3.33q5.77,10.18,11.58,20.33c1.46,2.54,3,5,4.5,7.54h-1.42c-2.72-2.06-3.74-5.31-5.36-8.08-2.17-3.69-4.29-7.42-6.44-11.12-1.55-2.67-2.88-5.47-4.66-8a2.08,2.08,0,0,1-.33-2.44h0a1.35,1.35,0,0,0,.41-0.64A1.11,1.11,0,0,1,457.55,211.94Z" transform="translate(-154.8 -93.92)"/><path class="cls-23" d="M456.64,213.49a2.65,2.65,0,0,0,.54,1.78c2.87,4,4.79,8.58,7.45,12.7,3.1,4.79,5.37,10.07,8.69,14.72a1.27,1.27,0,0,1,.1.46H472q-4.1-7.08-8.21-14.17c-2.37-4.11-4.7-8.24-7.12-12.32a4.53,4.53,0,0,1-.52-2.27A1.13,1.13,0,0,1,456.64,213.49Z" transform="translate(-154.8 -93.92)"/><path class="cls-24" d="M558.38,227.85a16,16,0,0,0,2.05,4.28c2,3.35,3.92,6.74,5.85,10.13a4,4,0,0,1,.26.91h-2.88c-2.75-3.32-4.58-7.2-6.73-10.88a1.82,1.82,0,0,1,0-2A7.62,7.62,0,0,1,558.38,227.85Z" transform="translate(-154.8 -93.92)"/><path class="cls-25" d="M447.94,228.76c2.95,4.33,5.24,9,7.95,13.51a3.6,3.6,0,0,1,.26.91h-2.41c-3-2.54-4.1-6.3-6.17-9.43-0.72-1.09-1.28-2.19-.55-3.51A1.82,1.82,0,0,1,447.94,228.76Z" transform="translate(-154.8 -93.92)"/><path class="cls-26" d="M455.12,216.21c0.49,2,1.85,3.65,2.83,5.43,2.65,4.78,5.52,9.43,8.25,14.16,1.42,2.46,2.66,5,4.32,7.36H469.1c-1.8-.76-2.26-2.61-3.1-4.06-3.51-6-6.95-12.07-10.46-18.08-0.73-1.25-1.75-2.55-.82-4.17Z" transform="translate(-154.8 -93.92)"/><path class="cls-27" d="M452.78,220.19a1.09,1.09,0,0,1,.51-0.92c2,1.78,2.86,4.36,4.22,6.57,2.87,4.68,5.53,9.48,8.29,14.22,0.54,0.93,1.32,1.85.91,3.09h-1.42c-2.27-2.42-3.48-5.51-5.15-8.3-2.21-3.69-4.33-7.42-6.49-11.14a5.75,5.75,0,0,1-1.08-2.88A1,1,0,0,1,452.78,220.19Z" transform="translate(-154.8 -93.92)"/><path class="cls-28" d="M466.7,243.16c-3.39-6.31-7.11-12.42-10.67-18.63-1-1.71-2.26-3.28-2.74-5.26l0,0a0.81,0.81,0,0,1,.65-0.25c1.42,0.2,1.46,1.58,2,2.47,4,6.49,7.54,13.24,11.53,19.74,0.36,0.59.83,1.24,0.19,2h-1Z" transform="translate(-154.8 -93.92)"/><path class="cls-29" d="M557,230.28a2.85,2.85,0,0,0,.4,1.58c2,3.31,3.84,6.73,6,9.94a2.42,2.42,0,0,1,.3,1.38h-2.41a56.27,56.27,0,0,0-5.81-10.07A6.29,6.29,0,0,1,557,230.28Z" transform="translate(-154.8 -93.92)"/><path class="cls-30" d="M447,230.25a4.44,4.44,0,0,0,.79,2.66c2,3.39,4,6.84,5.93,10.27h-2.4c-1.85-3-3.36-6.27-5.48-9.14a2.27,2.27,0,0,1-.27-1.38A7.84,7.84,0,0,1,447,230.25Z" transform="translate(-154.8 -93.92)"/><path class="cls-31" d="M467.67,243.15c-0.3-2-1.72-3.53-2.67-5.23-3.22-5.84-6.61-11.58-9.92-17.37a3.16,3.16,0,0,0-1.34-1.32,0.36,0.36,0,0,1-.14-0.35,0.22,0.22,0,0,1,.1-0.19,3.14,3.14,0,0,1,1-1.85c-0.24,1.57.73,2.75,1.41,4,2.68,4.75,5.48,9.43,8.22,14.14,1.59,2.74,3.17,5.48,4.76,8.22h-1.42Z" transform="translate(-154.8 -93.92)"/><path class="cls-32" d="M452.78,220.67c1.07,2.85,2.84,5.32,4.34,7.93,2.58,4.49,5.19,9,7.77,13.44a6,6,0,0,1,.38,1.12h-1c-2.05-3.49-4.12-7-6.15-10.48-1.51-2.6-2.93-5.25-4.49-7.82a7.83,7.83,0,0,1-1.37-3.76,1.19,1.19,0,0,1,.13-0.44A0.2,0.2,0,0,1,452.78,220.67Z" transform="translate(-154.8 -93.92)"/><path class="cls-6" d="M570.85,206.21a0.93,0.93,0,0,1-.52,1A1.16,1.16,0,0,1,570.85,206.21Z" transform="translate(-154.8 -93.92)"/><path class="cls-5" d="M459.48,208.6a0.9,0.9,0,0,1-.52,1A1.21,1.21,0,0,1,459.48,208.6Z" transform="translate(-154.8 -93.92)"/><path class="cls-10" d="M562.66,220.56l-0.42.59Z" transform="translate(-154.8 -93.92)"/><path class="cls-21" d="M561.24,223l-0.42.55Z" transform="translate(-154.8 -93.92)"/><path class="cls-23" d="M457.06,212.83l-0.41.64Z" transform="translate(-154.8 -93.92)"/><path class="cls-13" d="M567,212.89l-0.36.56Z" transform="translate(-154.8 -93.92)"/><path class="cls-27" d="M453.71,218.68l0,0.54H453.3Z" transform="translate(-154.8 -93.92)"/><path class="cls-15" d="M452.78,220.67h-0.36l0.36-.47Q452.79,220.43,452.78,220.67Z" transform="translate(-154.8 -93.92)"/><path class="cls-25" d="M448.45,227.82l-0.43.52Z" transform="translate(-154.8 -93.92)"/><text class="cls-33" transform="translate(257.3 230.66)"><tspan class="cls-34">C</tspan><tspan x="48.06" y="0">ODE</tspan></text></svg>