<svg id="Capa_1" data-name="Capa 1" xmlns="http://www.w3.org/2000/svg" viewBox="0 0 477.23 322.14"><defs><style>.cls-1{fill:#fafafa;}.cls-2{fill:none;stroke:#fafafa;stroke-miterlimit:10;stroke-width:9px;}.cls-3{fill:#212121;}</style></defs><title>summit</title><path class="cls-1" d="M965.27,668.68a1.76,1.76,0,0,1-.63.73,1.67,1.67,0,0,1-.86.21,2.28,2.28,0,0,1-1.12-.36q-0.62-.36-1.47-0.81a12.33,12.33,0,0,0-2-.81,8.79,8.79,0,0,0-2.68-.36,8.33,8.33,0,0,0-2.43.32,5.25,5.25,0,0,0-1.74.88,3.53,3.53,0,0,0-1.06,1.34,4.19,4.19,0,0,0-.35,1.72,2.88,2.88,0,0,0,.71,2,5.91,5.91,0,0,0,1.88,1.36,18.12,18.12,0,0,0,2.66,1q1.49,0.45,3,.95a30.23,30.23,0,0,1,3,1.17,10.64,10.64,0,0,1,2.66,1.68,7.66,7.66,0,0,1,1.88,2.49,8.21,8.21,0,0,1,.71,3.58,11,11,0,0,1-.83,4.29,9.89,9.89,0,0,1-2.44,3.49,11.61,11.61,0,0,1-3.92,2.34,15.27,15.27,0,0,1-5.3.85,18.12,18.12,0,0,1-3.38-.32,18.62,18.62,0,0,1-3.2-.9,17.12,17.12,0,0,1-2.86-1.4,14,14,0,0,1-2.38-1.83l1.94-3a2.43,2.43,0,0,1,.66-0.55,1.69,1.69,0,0,1,.86-0.22A2.48,2.48,0,0,1,948,689q0.72,0.48,1.71,1.07a13.43,13.43,0,0,0,2.31,1.06,9.49,9.49,0,0,0,3.2.48,6.85,6.85,0,0,0,4.43-1.28,4.45,4.45,0,0,0,1.57-3.66,3.26,3.26,0,0,0-.71-2.18,5.68,5.68,0,0,0-1.88-1.42,14.65,14.65,0,0,0-2.66-1q-1.49-.4-3-0.87a26.91,26.91,0,0,1-3-1.12,9.87,9.87,0,0,1-2.66-1.71,7.75,7.75,0,0,1-1.88-2.63,9.5,9.5,0,0,1-.71-3.9,8.74,8.74,0,0,1,.79-3.6,9.24,9.24,0,0,1,2.29-3.11,11.43,11.43,0,0,1,3.7-2.18,14.23,14.23,0,0,1,5-.82,17.77,17.77,0,0,1,5.88.94,13.45,13.45,0,0,1,4.58,2.62Z" transform="translate(-878.18 -416.29)"/><path class="cls-1" d="M987.17,691.28a9.32,9.32,0,0,0,3.47-.61,7.25,7.25,0,0,0,2.59-1.71,7.35,7.35,0,0,0,1.62-2.67,10.39,10.39,0,0,0,.56-3.51V662.52h6.7v20.26a14.79,14.79,0,0,1-1,5.58,12.55,12.55,0,0,1-3,4.42,13.65,13.65,0,0,1-4.71,2.9,19.12,19.12,0,0,1-12.45,0,13.53,13.53,0,0,1-4.69-2.9,12.61,12.61,0,0,1-3-4.42,14.77,14.77,0,0,1-1-5.58V662.52H979v20.24a10.39,10.39,0,0,0,.56,3.51,7.56,7.56,0,0,0,1.61,2.68,7.06,7.06,0,0,0,2.58,1.72A9.33,9.33,0,0,0,987.17,691.28Z" transform="translate(-878.18 -416.29)"/><path class="cls-1" d="M1027.79,683.88q0.36,0.81.71,1.63,0.35-.84.72-1.66t0.8-1.57l10.65-18.74a2.56,2.56,0,0,1,.41-0.56,1.28,1.28,0,0,1,.47-0.3,2.27,2.27,0,0,1,.59-0.12l0.77,0H1048v33.84h-5.9V674.5q0-.61,0-1.33t0.11-1.47l-10.88,19.19a2.74,2.74,0,0,1-1,1,2.63,2.63,0,0,1-1.39.36H1028a2.63,2.63,0,0,1-1.39-.36,2.75,2.75,0,0,1-1-1l-11-19.26q0.1,0.77.14,1.51t0,1.37v21.86h-5.9V662.52H1014l0.77,0a2.29,2.29,0,0,1,.58.12,1.39,1.39,0,0,1,.49.3,2.37,2.37,0,0,1,.42.56L1027,682.32Q1027.42,683.07,1027.79,683.88Z" transform="translate(-878.18 -416.29)"/><path class="cls-1" d="M1074.09,683.88q0.36,0.81.71,1.63,0.35-.84.72-1.66t0.8-1.57L1087,663.53a2.53,2.53,0,0,1,.41-0.56,1.28,1.28,0,0,1,.47-0.3,2.27,2.27,0,0,1,.58-0.12l0.77,0h5.05v33.84h-5.9V674.5q0-.61,0-1.33t0.11-1.47l-10.88,19.19a2.75,2.75,0,0,1-1,1,2.63,2.63,0,0,1-1.39.36h-0.92a2.63,2.63,0,0,1-1.39-.36,2.74,2.74,0,0,1-1-1l-11-19.26q0.1,0.77.14,1.51t0,1.37v21.86h-5.9V662.52h5.05l0.77,0a2.28,2.28,0,0,1,.58.12,1.4,1.4,0,0,1,.49.3,2.4,2.4,0,0,1,.42.56l10.75,18.79Q1073.73,683.07,1074.09,683.88Z" transform="translate(-878.18 -416.29)"/><path class="cls-1" d="M1109.07,696.36h-6.72V662.52h6.72v33.84Z" transform="translate(-878.18 -416.29)"/><path class="cls-1" d="M1142.53,662.52v5.17H1131.7v28.66H1125V667.7h-10.88v-5.17h28.4Z" transform="translate(-878.18 -416.29)"/><path class="cls-1" d="M1181.14,688.38a1.29,1.29,0,0,1,.95.4l2.64,2.69a14.43,14.43,0,0,1-5.39,3.91,19.62,19.62,0,0,1-7.68,1.36,19.18,19.18,0,0,1-7.21-1.29,15.92,15.92,0,0,1-5.46-3.58,15.5,15.5,0,0,1-3.47-5.47,19.43,19.43,0,0,1-1.21-7,17.71,17.71,0,0,1,1.34-7,15.94,15.94,0,0,1,3.78-5.46,17.28,17.28,0,0,1,5.84-3.57,21.19,21.19,0,0,1,7.5-1.28,18.73,18.73,0,0,1,7,1.21,16.5,16.5,0,0,1,5.14,3.19l-2.24,2.92a2,2,0,0,1-.51.49,1.52,1.52,0,0,1-.86.21,2,2,0,0,1-1.17-.42,14.64,14.64,0,0,0-1.52-.91,13.63,13.63,0,0,0-10.57-.5,10.41,10.41,0,0,0-3.66,2.38,10.8,10.8,0,0,0-2.39,3.76,13.65,13.65,0,0,0-.86,5,14,14,0,0,0,.86,5.08,11,11,0,0,0,2.33,3.74,10,10,0,0,0,3.46,2.33,11.3,11.3,0,0,0,4.28.81,20,20,0,0,0,2.48-.14,11.08,11.08,0,0,0,2-.45,9.35,9.35,0,0,0,1.77-.78,11.08,11.08,0,0,0,1.65-1.18,2.35,2.35,0,0,1,.52-0.34A1.38,1.38,0,0,1,1181.14,688.38Z" transform="translate(-878.18 -416.29)"/><path class="cls-1" d="M1224.3,679.44a17.78,17.78,0,0,1-1.32,6.89,16.23,16.23,0,0,1-3.71,5.49,16.92,16.92,0,0,1-5.75,3.62,22,22,0,0,1-14.9,0,17,17,0,0,1-5.78-3.62,16.15,16.15,0,0,1-3.72-5.49,18.64,18.64,0,0,1,0-13.78,16.13,16.13,0,0,1,3.72-5.49,17,17,0,0,1,5.78-3.62,20.58,20.58,0,0,1,7.46-1.3,20.32,20.32,0,0,1,7.44,1.31,17.16,17.16,0,0,1,5.75,3.62,16.09,16.09,0,0,1,3.71,5.48A17.77,17.77,0,0,1,1224.3,679.44Zm-6.87,0a14.86,14.86,0,0,0-.79-5,10.4,10.4,0,0,0-2.25-3.76,9.72,9.72,0,0,0-3.57-2.36,14.17,14.17,0,0,0-9.5,0,9.81,9.81,0,0,0-3.6,2.36,10.47,10.47,0,0,0-2.28,3.76,16.06,16.06,0,0,0,0,10,10.36,10.36,0,0,0,2.28,3.74,9.88,9.88,0,0,0,3.6,2.35,14.18,14.18,0,0,0,9.5,0,9.79,9.79,0,0,0,3.57-2.35,10.3,10.3,0,0,0,2.25-3.74A14.87,14.87,0,0,0,1217.43,679.44Z" transform="translate(-878.18 -416.29)"/><path class="cls-1" d="M1261.54,679.44a17.34,17.34,0,0,1-1.32,6.83,15.66,15.66,0,0,1-3.71,5.36,16.75,16.75,0,0,1-5.75,3.49,21.35,21.35,0,0,1-7.44,1.24h-13.74V662.52h13.74a21.2,21.2,0,0,1,7.44,1.25,17,17,0,0,1,5.75,3.49,15.52,15.52,0,0,1,3.71,5.35A17.33,17.33,0,0,1,1261.54,679.44Zm-6.85,0a14.71,14.71,0,0,0-.79-5,10.45,10.45,0,0,0-2.27-3.74,9.81,9.81,0,0,0-3.57-2.35,13,13,0,0,0-4.74-.82h-7v23.82h7a13,13,0,0,0,4.74-.82,9.81,9.81,0,0,0,3.57-2.35,10.46,10.46,0,0,0,2.27-3.74A14.72,14.72,0,0,0,1254.69,679.44Z" transform="translate(-878.18 -416.29)"/><path class="cls-1" d="M1289.49,662.52v5h-16v9.38h12.57v4.84h-12.57v9.57h16v5h-22.7V662.52h22.7Z" transform="translate(-878.18 -416.29)"/><path class="cls-1" d="M886.57,738.4a9.68,9.68,0,0,1-4.54-1.07,8.6,8.6,0,0,1-1.89-1.39,6.76,6.76,0,0,1-1.39-1.94l-0.58-1,2.77-1.51,0.58,1.08a5.28,5.28,0,0,0,5,2.88h0.11a7.23,7.23,0,0,0,2-.25,5.34,5.34,0,0,0,1.58-.76,3.67,3.67,0,0,0,1.37-2.78,4.38,4.38,0,0,0-.36-2.13,3.42,3.42,0,0,0-1.12-1.48,8.16,8.16,0,0,0-1.76-1.12q-0.47-.22-0.94-0.4a6.49,6.49,0,0,0-1-.29,12.61,12.61,0,0,1-3.62-1.46,8.49,8.49,0,0,1-2.16-1.87,5.37,5.37,0,0,1-1-2,7,7,0,0,1-.21-2,6,6,0,0,1,2.45-4.9,8.39,8.39,0,0,1,5.08-1.66,7.7,7.7,0,0,1,6.91,3.46l0.72,1.19-2.84,1.22-0.58-.76a4.66,4.66,0,0,0-4.21-2.12h-0.11a4.87,4.87,0,0,0-3,.94,3.31,3.31,0,0,0-1.26,2.67,3.75,3.75,0,0,0,.36,1.7,2.54,2.54,0,0,0,1,1.15,8.94,8.94,0,0,0,.81.49l0.77,0.38,0.81,0.29q0.41,0.14,1,.29a12.89,12.89,0,0,1,5.33,2.81,6.83,6.83,0,0,1,2.09,5.73,5.92,5.92,0,0,1-1.51,3.89,7,7,0,0,1-3.1,2.13,8.29,8.29,0,0,1-1.76.47A12.33,12.33,0,0,1,886.57,738.4Z" transform="translate(-878.18 -416.29)"/><path class="cls-1" d="M910.26,738.32a13.76,13.76,0,0,1-5.29-1,13.38,13.38,0,0,1-4.27-2.77,13,13,0,0,1-2.86-4.14,13,13,0,0,1,0-10.21,13.06,13.06,0,0,1,2.86-4.12A13.38,13.38,0,0,1,905,713.3a14.4,14.4,0,0,1,10.58,0,13.38,13.38,0,0,1,4.27,2.77,13.08,13.08,0,0,1,2.86,4.12,13,13,0,0,1,0,10.21,13,13,0,0,1-2.86,4.14,13.38,13.38,0,0,1-4.27,2.77A13.77,13.77,0,0,1,910.26,738.32Zm0-23a11.14,11.14,0,0,0-4.14.76,9.95,9.95,0,0,0,0,18.54,11.6,11.6,0,0,0,8.24,0,9.71,9.71,0,0,0,5.47-5.29,10.39,10.39,0,0,0,0-8,9.72,9.72,0,0,0-5.47-5.29A11,11,0,0,0,910.26,715.28Z" transform="translate(-878.18 -416.29)"/><path class="cls-1" d="M926.63,738.43V712.3h3.24v23H940.6v3.13h-14Z" transform="translate(-878.18 -416.29)"/><path class="cls-1" d="M952.59,738.4a10.21,10.21,0,0,1-7.31-2.48,8.28,8.28,0,0,1-2.52-4.37,27,27,0,0,1-.58-5.89V712.33h3.1v13.32a20.87,20.87,0,0,0,.5,5.18,5.76,5.76,0,0,0,1.69,2.92,7.25,7.25,0,0,0,5.11,1.58q4,0,5.76-2.27a7.16,7.16,0,0,0,1.19-2.79,23.12,23.12,0,0,0,.36-4.63V712.33H963v13.32q0,1.69-.11,3a17.1,17.1,0,0,1-.36,2.45,10.62,10.62,0,0,1-.65,2,9.33,9.33,0,0,1-1,1.67Q958.28,738.4,952.59,738.4Z" transform="translate(-878.18 -416.29)"/><path class="cls-1" d="M979.2,738.4a13.33,13.33,0,0,1-9.87-3.71,12.48,12.48,0,0,1-3.82-9.22,12.61,12.61,0,0,1,3.74-9.29q3.67-3.82,9.94-3.82a12.44,12.44,0,0,1,9.18,3.6l0.86,0.86L987.12,719l-0.86-.79a9.78,9.78,0,0,0-1.48-1.22,13.09,13.09,0,0,0-1.58-.9,10.64,10.64,0,0,0-4-.65,10.44,10.44,0,0,0-7.56,2.77,9.56,9.56,0,0,0-2.88,7.27,9.33,9.33,0,0,0,2.88,7,10.22,10.22,0,0,0,7.56,2.84,9.72,9.72,0,0,0,7.56-3.28l0.76-.83,2.41,1.91-0.86.94A12.62,12.62,0,0,1,979.2,738.4Z" transform="translate(-878.18 -416.29)"/><path class="cls-1" d="M992.59,738.4V712.3h3.24v26.1h-3.24Z" transform="translate(-878.18 -416.29)"/><path class="cls-1" d="M1012.49,738.32a13.77,13.77,0,0,1-5.29-1,13.36,13.36,0,0,1-4.27-2.77,13,13,0,0,1-2.86-4.14,13,13,0,0,1,0-10.21,13,13,0,0,1,2.86-4.12,13.36,13.36,0,0,1,4.27-2.77,14.4,14.4,0,0,1,10.58,0,13.36,13.36,0,0,1,4.27,2.77,13.08,13.08,0,0,1,2.86,4.12,13,13,0,0,1,0,10.21,13,13,0,0,1-2.86,4.14,13.36,13.36,0,0,1-4.27,2.77A13.76,13.76,0,0,1,1012.49,738.32Zm0-23a11.14,11.14,0,0,0-4.14.76,9.95,9.95,0,0,0,0,18.54,11.6,11.6,0,0,0,8.24,0,9.72,9.72,0,0,0,5.47-5.29,10.4,10.4,0,0,0,0-8,9.73,9.73,0,0,0-5.47-5.29A11,11,0,0,0,1012.49,715.28Z" transform="translate(-878.18 -416.29)"/><path class="cls-1" d="M1045.11,738.4l-13-20.34V738.4h-3.24V712.33h3.28l13,20.38V712.37h3.24v26h-3.31Z" transform="translate(-878.18 -416.29)"/><path class="cls-1" d="M1052.42,738.4v-26h14.83v3.1h-11.56v8.32h11.41v3.1h-11.45v8.39h11.59v3.13h-14.83Z" transform="translate(-878.18 -416.29)"/><path class="cls-1" d="M1076.9,738.4a9.68,9.68,0,0,1-4.54-1.07,8.61,8.61,0,0,1-1.89-1.39,6.78,6.78,0,0,1-1.39-1.94l-0.58-1,2.77-1.51,0.58,1.08a5.28,5.28,0,0,0,5,2.88H1077a7.23,7.23,0,0,0,2-.25,5.34,5.34,0,0,0,1.58-.76,3.67,3.67,0,0,0,1.37-2.78,4.38,4.38,0,0,0-.36-2.13,3.42,3.42,0,0,0-1.12-1.48,8.12,8.12,0,0,0-1.76-1.12q-0.47-.22-0.94-0.4a6.54,6.54,0,0,0-1-.29,12.61,12.61,0,0,1-3.62-1.46,8.47,8.47,0,0,1-2.16-1.87,5.35,5.35,0,0,1-1-2,7.09,7.09,0,0,1-.22-2,6,6,0,0,1,2.45-4.9,8.4,8.4,0,0,1,5.08-1.66,7.7,7.7,0,0,1,6.91,3.46L1085,717l-2.84,1.22-0.58-.76a4.66,4.66,0,0,0-4.21-2.12h-0.11a4.87,4.87,0,0,0-3,.94,3.32,3.32,0,0,0-1.26,2.67,3.75,3.75,0,0,0,.36,1.7,2.55,2.55,0,0,0,1,1.15,8.81,8.81,0,0,0,.81.49l0.77,0.38,0.81,0.29q0.41,0.14,1,.29a12.89,12.89,0,0,1,5.33,2.81,6.83,6.83,0,0,1,2.09,5.73,5.92,5.92,0,0,1-1.51,3.89,7,7,0,0,1-3.1,2.13,8.29,8.29,0,0,1-1.76.47A12.33,12.33,0,0,1,1076.9,738.4Z" transform="translate(-878.18 -416.29)"/><path class="cls-1" d="M1102.13,738.36V715.43h-6.88v-3.1h17v3.1h-6.84v22.93h-3.24Z" transform="translate(-878.18 -416.29)"/><path class="cls-1" d="M1114.23,738.4v-26h14.83v3.1H1117.5v8.32h11.41v3.1h-11.45v8.39h11.59v3.13h-14.83Z" transform="translate(-878.18 -416.29)"/><path class="cls-1" d="M1144.29,738.4a13.33,13.33,0,0,1-9.86-3.71,12.48,12.48,0,0,1-3.82-9.22,12.61,12.61,0,0,1,3.74-9.29q3.67-3.82,9.94-3.82a12.44,12.44,0,0,1,9.18,3.6l0.87,0.86-2.12,2.16-0.86-.79a9.78,9.78,0,0,0-1.48-1.22,12.87,12.87,0,0,0-1.58-.9,10.64,10.64,0,0,0-4-.65,10.45,10.45,0,0,0-7.56,2.77,9.56,9.56,0,0,0-2.88,7.27,9.33,9.33,0,0,0,2.88,7,10.22,10.22,0,0,0,7.56,2.84,9.72,9.72,0,0,0,7.56-3.28l0.76-.83,2.41,1.91-0.86.94A12.63,12.63,0,0,1,1144.29,738.4Z" transform="translate(-878.18 -416.29)"/><path class="cls-1" d="M1173.92,738.4l-13-20.34V738.4h-3.24V712.33H1161l13,20.38V712.37h3.24v26h-3.31Z" transform="translate(-878.18 -416.29)"/><path class="cls-1" d="M1193.64,738.32a13.75,13.75,0,0,1-5.29-1,13.37,13.37,0,0,1-4.27-2.77,13,13,0,0,1-2.86-4.14,13,13,0,0,1,0-10.21,13.06,13.06,0,0,1,2.86-4.12,13.37,13.37,0,0,1,4.27-2.77,14.4,14.4,0,0,1,10.58,0,13.38,13.38,0,0,1,4.27,2.77,13.06,13.06,0,0,1,2.86,4.12,13,13,0,0,1,0,10.21,13,13,0,0,1-2.86,4.14,13.38,13.38,0,0,1-4.27,2.77A13.77,13.77,0,0,1,1193.64,738.32Zm0-23a11.15,11.15,0,0,0-4.14.76,9.95,9.95,0,0,0,0,18.54,11.6,11.6,0,0,0,8.24,0,9.71,9.71,0,0,0,5.47-5.29,10.4,10.4,0,0,0,0-8,9.72,9.72,0,0,0-5.47-5.29A11,11,0,0,0,1193.64,715.28Z" transform="translate(-878.18 -416.29)"/><path class="cls-1" d="M1210,738.43V712.3h3.24v23H1224v3.13h-14Z" transform="translate(-878.18 -416.29)"/><path class="cls-1" d="M1238.39,738.32a13.75,13.75,0,0,1-5.29-1,13.37,13.37,0,0,1-4.27-2.77,13,13,0,0,1-2.86-4.14,13,13,0,0,1,0-10.21,13.06,13.06,0,0,1,2.86-4.12,13.37,13.37,0,0,1,4.27-2.77,14.4,14.4,0,0,1,10.58,0,13.38,13.38,0,0,1,4.27,2.77,13.06,13.06,0,0,1,2.86,4.12,13,13,0,0,1,0,10.21,13,13,0,0,1-2.86,4.14,13.38,13.38,0,0,1-4.27,2.77A13.77,13.77,0,0,1,1238.39,738.32Zm0-23a11.15,11.15,0,0,0-4.14.76,9.95,9.95,0,0,0,0,18.54,11.6,11.6,0,0,0,8.24,0,9.71,9.71,0,0,0,5.47-5.29,10.4,10.4,0,0,0,0-8,9.72,9.72,0,0,0-5.47-5.29A11,11,0,0,0,1238.39,715.28Z" transform="translate(-878.18 -416.29)"/><path class="cls-1" d="M1267.26,738.4a13.12,13.12,0,0,1-13.54-12.92,12.76,12.76,0,0,1,.95-4.9,13,13,0,0,1,2.69-4.14,12.82,12.82,0,0,1,4.29-3,15.48,15.48,0,0,1,2.68-.79,14.78,14.78,0,0,1,2.93-.29,14,14,0,0,1,10.15,3.89l0.94,0.94-2.41,1.94-0.76-.72a10.63,10.63,0,0,0-7.92-3,9.76,9.76,0,0,0-7.42,3,10.56,10.56,0,0,0-2.16,3.26,9.86,9.86,0,0,0-.72,3.8,9.18,9.18,0,0,0,.72,3.64,10.76,10.76,0,0,0,2.16,3.2,9.79,9.79,0,0,0,7.42,3,10.22,10.22,0,0,0,6.55-2.23,8,8,0,0,0,2.92-4.61h-11.45v-3.06h15l-0.07,1.26a12.24,12.24,0,0,1-4,8.35A12.58,12.58,0,0,1,1267.26,738.4Z" transform="translate(-878.18 -416.29)"/><path class="cls-1" d="M1282.85,738.4V712.3h3.24v26.1h-3.24Z" transform="translate(-878.18 -416.29)"/><path class="cls-1" d="M1302.94,738.4a13.33,13.33,0,0,1-9.86-3.71,12.48,12.48,0,0,1-3.82-9.22,12.61,12.61,0,0,1,3.74-9.29q3.67-3.82,9.94-3.82a12.44,12.44,0,0,1,9.18,3.6l0.87,0.86-2.12,2.16-0.86-.79a9.78,9.78,0,0,0-1.48-1.22,12.87,12.87,0,0,0-1.58-.9,10.64,10.64,0,0,0-4-.65,10.45,10.45,0,0,0-7.56,2.77,9.56,9.56,0,0,0-2.88,7.27,9.33,9.33,0,0,0,2.88,7,10.22,10.22,0,0,0,7.56,2.84,9.72,9.72,0,0,0,7.56-3.28l0.76-.83,2.41,1.91-0.86.94A12.63,12.63,0,0,1,1302.94,738.4Z" transform="translate(-878.18 -416.29)"/><path class="cls-1" d="M1334.51,738.4l-3.24-8.42h-10l-3.21,8.42h-3.49l10.12-26.1h3.1L1338,738.4h-3.46ZM1330,726.88l-3.78-9.9-3.82,9.9h7.6Z" transform="translate(-878.18 -416.29)"/><path class="cls-1" d="M1347.14,738.4a9.67,9.67,0,0,1-4.54-1.07,8.61,8.61,0,0,1-1.89-1.39,6.76,6.76,0,0,1-1.38-1.94l-0.58-1,2.77-1.51,0.58,1.08a5.27,5.27,0,0,0,5,2.88h0.11a7.23,7.23,0,0,0,2-.25,5.34,5.34,0,0,0,1.58-.76,3.67,3.67,0,0,0,1.37-2.78,4.38,4.38,0,0,0-.36-2.13,3.43,3.43,0,0,0-1.12-1.48,8.07,8.07,0,0,0-1.76-1.12c-0.31-.14-0.62-0.28-0.94-0.4a6.54,6.54,0,0,0-1-.29,12.62,12.62,0,0,1-3.62-1.46,8.49,8.49,0,0,1-2.16-1.87,5.38,5.38,0,0,1-1-2,7.12,7.12,0,0,1-.22-2,6,6,0,0,1,2.45-4.9,8.39,8.39,0,0,1,5.07-1.66,7.7,7.7,0,0,1,6.91,3.46l0.72,1.19-2.84,1.22-0.58-.76a4.66,4.66,0,0,0-4.21-2.12h-0.11a4.87,4.87,0,0,0-3,.94,3.32,3.32,0,0,0-1.26,2.67,3.77,3.77,0,0,0,.36,1.7,2.55,2.55,0,0,0,1,1.15,8.81,8.81,0,0,0,.81.49l0.77,0.38,0.81,0.29q0.41,0.14,1,.29a12.89,12.89,0,0,1,5.33,2.81,6.83,6.83,0,0,1,2.09,5.73,5.91,5.91,0,0,1-1.51,3.89,7,7,0,0,1-3.1,2.13,8.3,8.3,0,0,1-1.76.47A12.35,12.35,0,0,1,1347.14,738.4Z" transform="translate(-878.18 -416.29)"/><path class="cls-2" d="M973.56,599.59l80.1-137.18L1126.31,585c1.25,2.75,8.92,20.32,1.86,37.41-7.84,19-34.06,29.37-54,18.71-19.62-10.48-26.81-37.76-13.16-58.16l18-32,79-126,102.45,176.67" transform="translate(-878.18 -416.29)"/><rect class="cls-3" x="1072.74" y="517.79" width="30.5" height="6.85" transform="translate(-817.96 736.66) rotate(-57.17)"/><rect class="cls-3" x="1081.74" y="533.79" width="30.5" height="6.85" transform="translate(-827.28 751.55) rotate(-57.17)"/><path class="cls-1" d="M1090.73,438.17a0.44,0.44,0,0,0,.17-0.56,0.63,0.63,0,0,1,.21-0.86,5.19,5.19,0,0,0,.91-0.87,4.63,4.63,0,0,1,1.65-1.39l0.39-.26a2.36,2.36,0,0,1,.44-0.17,3.46,3.46,0,0,1,1.22-.18,1.22,1.22,0,0,0,.7-0.13l0.3-.17,0.3-.17a0.48,0.48,0,0,1,.74.13l0.13,0.09,0.13,0a6.87,6.87,0,0,1,2.28.94,5.48,5.48,0,0,1,2.15,2.58,1.39,1.39,0,0,1,.09.73v0.82l0,0.82,0.14,2.2V442a1.79,1.79,0,0,1-.09.22,2,2,0,0,0-.17,1.08,1.06,1.06,0,0,1-.26.78,1.18,1.18,0,0,1-.74.43,7.6,7.6,0,0,0-.79,0,2.73,2.73,0,0,1-1.62-.12l-0.17,0-0.22,0a5.18,5.18,0,0,1-2.14-.64l-0.83-.38-0.79-.3-0.61-.21-0.66-.21-0.61-.26-0.57-.26-0.53-.39-0.53-.43a0.35,0.35,0,0,1-.09-0.26,1.19,1.19,0,0,0-.53-1.08,0.5,0.5,0,0,1-.22-0.47,3.88,3.88,0,0,0,0-.52l-0.09-.6Zm4.93,34.44h0.09l0.09,0,0.22-.09,0.22-.09a0.39,0.39,0,0,0,.22-0.35,0.25,0.25,0,0,1,.13-0.13l0.13-.09,0.09,0,0.17-.09,0.17-.13,0.3-.56,0-.09,0-.13c0-.29-0.06-0.5-0.09-0.65a2,2,0,0,1-.09-0.78,0.39,0.39,0,0,0,0-.26l-0.09-.26-0.31-.6-0.4-.6-0.35-.65-0.35-.6-0.35-.56-0.44-.52a1.06,1.06,0,0,0-.48-0.3,2.7,2.7,0,0,1-1-.69l-0.18-.21-0.18-.17a1.31,1.31,0,0,1-.31-0.43l-0.13-.26-0.13-.3-0.09-.26-0.09-.26a1.05,1.05,0,0,1-.09-0.56v-0.13a1.72,1.72,0,0,1-.13-0.69l0-.39,0-.35a1,1,0,0,0-.14-0.82v-0.17l0.22,0a0.65,0.65,0,0,0,.61-0.31l0.22-.26,0.26-.3-0.09-.09-0.09-.09v-0.09a0.05,0.05,0,0,1,0-.09l0.17-.09,0.17-.09a0.42,0.42,0,0,1,.39-0.13,2,2,0,0,0,1-.18,0.75,0.75,0,0,1,.74,0,1.17,1.17,0,0,0,.52,0,2.32,2.32,0,0,1,2.54.81l0.35,0.56,0.35,0.52,0.35,0.52,0.26,0.52,0.53,0.95,0.53,1,0.26,0.52,0.22,0.52,0.62,1.51a17.14,17.14,0,0,1,.71,2.15l0.09,0.43,0.13,0.39V468l0,0.17a0.46,0.46,0,0,0,0,.22,0.76,0.76,0,0,1,.09.34V469a2.39,2.39,0,0,1-.08.52l-0.17.69-0.22.56-0.22.56,0,0.13-0.09.13a0.66,0.66,0,0,1-.26.22l-0.13,0-0.09.13a5.3,5.3,0,0,0-.87,1.13,0.42,0.42,0,0,1-.35.3l-0.13,0-0.09,0a0.36,0.36,0,0,1-.22.3l-0.22.09-0.13.13a0.57,0.57,0,0,1-.22.13,1.07,1.07,0,0,0-.48.13l-0.48.22a1.42,1.42,0,0,1-.83.09l-0.39-.08h-0.39l-0.61-.13-0.57-.21,0,0,0,0a0.82,0.82,0,0,1-.53-0.17l-0.18-.13-0.17-.17,0-.09,0-.43-0.09-.52A0.65,0.65,0,0,0,1095.66,472.61Z" transform="translate(-878.18 -416.29)"/></svg>